<svg id="icons" xmlns="http://www.w3.org/2000/svg" viewBox="0 0 128 128"><defs><style>.cls-1{opacity:0.08;}.cls-2,.cls-3{fill:none;}.cls-2,.cls-3,.cls-4,.cls-5,.cls-6,.cls-7{stroke:#222;stroke-linecap:round;stroke-linejoin:round;}.cls-2{stroke-width:2px;}.cls-3,.cls-4,.cls-5,.cls-6,.cls-7{stroke-width:4px;}.cls-4{fill:#0199da;}.cls-5{fill:#04b5ab;}.cls-6{fill:#ffd300;}.cls-7{fill:#fff;}</style></defs><title>surfboard</title><g class="cls-1"><line class="cls-2" x1="22" y1="83" x2="66" y2="83"/><line class="cls-2" x1="8" y1="75" x2="35" y2="75"/><line class="cls-2" x1="69" y1="18" x2="111" y2="18"/><line class="cls-2" x1="122" y1="34" x2="99" y2="34"/><line class="cls-2" x1="111" y1="64" x2="88" y2="64"/><line class="cls-2" x1="116" y1="116" x2="72" y2="116"/><line class="cls-2" x1="20" y1="111" x2="43" y2="111"/><line class="cls-2" x1="21" y1="23" x2="49" y2="23"/><line class="cls-2" x1="38" y1="11" x2="68" y2="11"/></g><line class="cls-3" x1="94" y1="100" x2="58" y2="100"/><path class="cls-4" d="M83.52,98a112.17,112.17,0,0,0,7.23-26.26A97.06,97.06,0,0,0,92,57.81C80,63.8,77,78.63,83.52,98Z"/><path class="cls-5" d="M91.23,45.39C89.6,33.94,85.91,28,85.91,28S72.41,39.39,67.75,67.58C75.34,56.76,86.41,51.6,91.23,45.39Z"/><circle class="cls-6" cx="49" cy="49" r="6"/><line class="cls-3" x1="49" y1="34" x2="49" y2="37"/><line class="cls-3" x1="38.39" y1="38.39" x2="40.51" y2="40.51"/><line class="cls-3" x1="34" y1="49" x2="37" y2="49"/><line class="cls-3" x1="38.39" y1="59.61" x2="40.51" y2="57.49"/><line class="cls-3" x1="49" y1="64" x2="49" y2="61"/><line class="cls-3" x1="59.61" y1="59.61" x2="57.49" y2="57.49"/><line class="cls-3" x1="64" y1="49" x2="61" y2="49"/><line class="cls-3" x1="59.61" y1="38.39" x2="57.49" y2="40.51"/><path class="cls-7" d="M92,57.81a79.66,79.66,0,0,0-.75-12.41c-4.83,6.21-15.9,11.36-23.48,22.19,0,.18-.06.36-.09.54-2,12.62-2.14,24.13-.67,31.88H82.61c.31-.64.61-1.31.91-2C77,78.63,80,63.8,92,57.81Z"/></svg>